<?xml version="1.0" encoding="UTF-8"?>
<!DOCTYPE svg PUBLIC "-//W3C//DTD SVG 1.1//EN" "http://www.w3.org/Graphics/SVG/1.1/DTD/svg11.dtd">
<svg xmlns="http://www.w3.org/2000/svg" version="1.1" width="600px" height="600px" style="shape-rendering:geometricPrecision; text-rendering:geometricPrecision; image-rendering:optimizeQuality; fill-rule:evenodd; clip-rule:evenodd" xmlns:xlink="http://www.w3.org/1999/xlink">
<g><path style="opacity:0.97" fill="#e81f26" d="M 113.5,271.5 C 110.488,276.169 106.988,280.502 103,284.5C 102.802,282.618 102.302,280.952 101.5,279.5C 98.4128,260.909 87.7461,249.076 69.5,244C 51.8455,241.171 37.5121,246.671 26.5,260.5C 23.0219,257.811 21.0219,254.144 20.5,249.5C 34.8393,234.888 52.1727,229.388 72.5,233C 88.3369,236.83 100.504,245.663 109,259.5C 111.354,263.203 112.854,267.203 113.5,271.5 Z"/></g>
<g><path style="opacity:0.967" fill="#ffed06" d="M 349.5,264.5 C 347.662,269.665 344.662,273.999 340.5,277.5C 335.322,256.061 321.656,244.728 299.5,243.5C 276.04,244.959 262.373,257.293 258.5,280.5C 253.97,276.645 250.637,271.978 248.5,266.5C 258.097,244.263 275.097,232.596 299.5,231.5C 322.925,232.529 339.591,243.529 349.5,264.5 Z"/></g>
<g><path style="opacity:0.987" fill="#8e2890" d="M 593.5,279.5 C 589.548,284.119 585.215,288.452 580.5,292.5C 579.571,291.311 579.238,289.978 579.5,288.5C 577.939,256.111 560.939,241.278 528.5,244C 507.343,251.319 497.01,266.153 497.5,288.5C 492.139,285.139 487.806,280.806 484.5,275.5C 491.87,248.311 509.703,233.644 538,231.5C 568.454,233.794 586.954,249.794 593.5,279.5 Z"/></g>
<g><path style="opacity:1" fill="#f7e5e5" d="M 101.5,279.5 C 101.5,283.167 101.5,286.833 101.5,290.5C 99.7973,291.66 99.1307,290.993 99.5,288.5C 99.8128,284.958 99.4794,281.625 98.5,278.5C 96.0844,261.914 86.7511,251.414 70.5,247C 46.977,242.846 31.1436,252.012 23,274.5C 22.5006,279.823 22.334,285.156 22.5,290.5C 22.5,290.833 22.5,291.167 22.5,291.5C 22.5,292.833 21.8333,293.5 20.5,293.5C 20.7845,291.585 20.4511,289.919 19.5,288.5C 18.7101,278.326 21.0434,268.993 26.5,260.5C 37.5121,246.671 51.8455,241.171 69.5,244C 87.7461,249.076 98.4128,260.909 101.5,279.5 Z"/></g>
<g><path style="opacity:1" fill="#faf7e5" d="M 340.5,277.5 C 340.5,281.5 340.5,285.5 340.5,289.5C 340.167,289.5 339.833,289.5 339.5,289.5C 338.833,289.833 338.167,290.167 337.5,290.5C 337.5,286.167 337.5,281.833 337.5,277.5C 331.67,254.857 317.004,244.357 293.5,246C 271.276,251.398 260.61,265.565 261.5,288.5C 261.098,285.523 260.098,282.857 258.5,280.5C 262.373,257.293 276.04,244.959 299.5,243.5C 321.656,244.728 335.322,256.061 340.5,277.5 Z"/></g>
<g><path style="opacity:1" fill="#efe6ef" d="M 579.5,288.5 C 578.566,289.568 578.232,290.901 578.5,292.5C 577.833,292.5 577.167,292.5 576.5,292.5C 576.5,292.167 576.5,291.833 576.5,291.5C 577.95,264.123 565.117,248.789 538,245.5C 512.354,248.315 499.521,262.648 499.5,288.5C 499.158,289.338 498.492,289.672 497.5,289.5C 497.5,289.167 497.5,288.833 497.5,288.5C 497.01,266.153 507.343,251.319 528.5,244C 560.939,241.278 577.939,256.111 579.5,288.5 Z"/></g>
<g><path style="opacity:1" fill="#e43335" d="M 98.5,278.5 C 98.6641,281.187 98.4974,283.854 98,286.5C 97.8138,283.964 97.3138,281.631 96.5,279.5C 92.4474,259.614 80.2807,249.281 60,248.5C 41.8157,249.667 30.3157,259 25.5,276.5C 24.5166,280.298 24.1832,284.298 24.5,288.5C 24.5,289.833 23.8333,290.5 22.5,290.5C 22.334,285.156 22.5006,279.823 23,274.5C 31.1436,252.012 46.977,242.846 70.5,247C 86.7511,251.414 96.0844,261.914 98.5,278.5 Z"/></g>
<g><path style="opacity:1" fill="#ffea2c" d="M 337.5,277.5 C 336.833,277.833 336.167,278.167 335.5,278.5C 329.333,256.188 314.666,246.355 291.5,249C 271.306,255.382 261.973,269.215 263.5,290.5C 263.158,291.338 262.492,291.672 261.5,291.5C 261.5,290.5 261.5,289.5 261.5,288.5C 260.61,265.565 271.276,251.398 293.5,246C 317.004,244.357 331.67,254.857 337.5,277.5 Z"/></g>
<g><path style="opacity:1" fill="#943c98" d="M 576.5,291.5 C 574.952,291.179 574.285,290.179 574.5,288.5C 574.813,284.958 574.479,281.625 573.5,278.5C 570.893,262.39 561.56,252.557 545.5,249C 524.254,246.537 510.087,255.371 503,275.5C 502.501,280.155 502.334,284.821 502.5,289.5C 502.5,290.5 502.5,291.5 502.5,292.5C 502.5,293.167 502.167,293.5 501.5,293.5C 500.833,291.833 500.167,290.167 499.5,288.5C 499.521,262.648 512.354,248.315 538,245.5C 565.117,248.789 577.95,264.123 576.5,291.5 Z"/></g>
<g><path style="opacity:1" fill="#f6f4f4" d="M 96.5,279.5 C 96.5,282.833 96.5,286.167 96.5,289.5C 93.3925,291.765 90.3925,294.265 87.5,297C 85.9751,298.009 84.3084,298.509 82.5,298.5C 82.8064,295.615 82.4731,292.948 81.5,290.5C 80.4763,286.638 78.1429,283.805 74.5,282C 77.4281,280.74 79.2614,278.573 80,275.5C 82.3778,267.233 79.5444,261.733 71.5,259C 61.5056,258.5 51.5056,258.334 41.5,258.5C 40.5044,271.656 40.1711,284.99 40.5,298.5C 37.2767,297.555 34.2767,296.055 31.5,294C 30.6667,291.833 29.1667,290.333 27,289.5C 25.6326,285.3 25.1326,280.967 25.5,276.5C 30.3157,259 41.8157,249.667 60,248.5C 80.2807,249.281 92.4474,259.614 96.5,279.5 Z"/></g>
<g><path style="opacity:1" fill="#f6f6f5" d="M 335.5,278.5 C 335.823,284.635 335.156,290.635 333.5,296.5C 329.178,298.49 324.845,300.49 320.5,302.5C 320.5,287.833 320.5,273.167 320.5,258.5C 316.298,258.183 312.298,258.517 308.5,259.5C 308.666,269.506 308.5,279.506 308,289.5C 303.076,279.316 297.909,269.316 292.5,259.5C 288.03,258.514 283.363,258.181 278.5,258.5C 278.5,273.833 278.5,289.167 278.5,304.5C 274.258,302.91 270.258,300.91 266.5,298.5C 265.488,295.748 264.488,293.081 263.5,290.5C 261.973,269.215 271.306,255.382 291.5,249C 314.666,246.355 329.333,256.188 335.5,278.5 Z"/></g>
<g><path style="opacity:1" fill="#f5f4f5" d="M 573.5,278.5 C 572.504,284.512 569.17,288.845 563.5,291.5C 562.614,290.675 562.281,289.675 562.5,288.5C 562.226,261.881 549.559,252.714 524.5,261C 514.707,270.585 511.707,282.085 515.5,295.5C 515.631,296.376 515.298,297.043 514.5,297.5C 510.772,294.311 506.772,291.645 502.5,289.5C 502.334,284.821 502.501,280.155 503,275.5C 510.087,255.371 524.254,246.537 545.5,249C 561.56,252.557 570.893,262.39 573.5,278.5 Z"/></g>
<g><path style="opacity:0.967" fill="#de2027" d="M 20.5,249.5 C 21.0219,254.144 23.0219,257.811 26.5,260.5C 21.0434,268.993 18.7101,278.326 19.5,288.5C 19.728,290.355 19.0613,291.188 17.5,291C 13.23,287.239 9.56335,283.072 6.5,278.5C 7.71317,267.076 12.3798,257.409 20.5,249.5 Z"/></g>
<g><path style="opacity:0.971" fill="#3eaa4a" d="M 469.5,288.5 C 466.657,293.519 463.324,298.186 459.5,302.5C 454.724,280.389 441.057,268.722 418.5,267.5C 399.933,268.209 387.1,277.209 380,294.5C 379.023,296.74 378.523,299.073 378.5,301.5C 377.674,306.316 377.174,311.316 377,316.5C 372.293,312.628 368.127,308.294 364.5,303.5C 368.695,278.138 383.361,262.638 408.5,257C 436.079,253.788 456.413,264.288 469.5,288.5 Z"/></g>
<g><path style="opacity:1" fill="#060606" d="M 562.5,288.5 C 559.58,305.236 549.58,312.736 532.5,311C 524.056,308.717 518.389,303.55 515.5,295.5C 511.707,282.085 514.707,270.585 524.5,261C 549.559,252.714 562.226,261.881 562.5,288.5 Z"/></g>
<g><path style="opacity:1" fill="#020202" d="M 41.5,258.5 C 51.5056,258.334 61.5056,258.5 71.5,259C 79.5444,261.733 82.3778,267.233 80,275.5C 79.2614,278.573 77.4281,280.74 74.5,282C 78.1429,283.805 80.4763,286.638 81.5,290.5C 82.956,298.325 80.2894,304.159 73.5,308C 62.8888,309.375 52.2221,309.875 41.5,309.5C 41.5,292.5 41.5,275.5 41.5,258.5 Z"/></g>
<g><path style="opacity:0.968" fill="#09abeb" d="M 221.5,274.5 C 220.06,278.713 218.06,282.713 215.5,286.5C 198.305,265.314 177.971,261.814 154.5,276C 142.744,285.763 137.744,298.263 139.5,313.5C 138.675,309.353 138.175,305.019 138,300.5C 134.92,296.933 132.087,293.267 129.5,289.5C 137.375,271.468 151.041,260.635 170.5,257C 190.768,253.822 207.768,259.655 221.5,274.5 Z"/></g>
<g><path style="opacity:1" fill="#030303" d="M 292.5,259.5 C 297.909,269.316 303.076,279.316 308,289.5C 308.5,279.506 308.666,269.506 308.5,259.5C 312.167,259.5 315.833,259.5 319.5,259.5C 319.5,276.167 319.5,292.833 319.5,309.5C 315.167,309.5 310.833,309.5 306.5,309.5C 306.672,308.508 306.338,307.842 305.5,307.5C 300.679,298.527 295.846,289.527 291,280.5C 290.5,287.826 290.334,295.159 290.5,302.5C 290.5,304.833 290.5,307.167 290.5,309.5C 286.833,309.5 283.167,309.5 279.5,309.5C 279.5,292.833 279.5,276.167 279.5,259.5C 283.833,259.5 288.167,259.5 292.5,259.5 Z"/></g>
<g><path style="opacity:1" fill="#e9f2f7" d="M 215.5,286.5 C 220.093,295.925 221.76,305.925 220.5,316.5C 219.833,316.5 219.167,316.5 218.5,316.5C 218.5,312.5 218.5,308.5 218.5,304.5C 214.637,282.476 201.47,270.809 179,269.5C 157.609,271.726 145.109,283.393 141.5,304.5C 141.283,309.23 141.617,313.897 142.5,318.5C 142.158,319.338 141.492,319.672 140.5,319.5C 139.85,317.565 139.517,315.565 139.5,313.5C 137.744,298.263 142.744,285.763 154.5,276C 177.971,261.814 198.305,265.314 215.5,286.5 Z"/></g>
<g><path style="opacity:1" fill="#e9f2ea" d="M 459.5,302.5 C 459.5,306.833 459.5,311.167 459.5,315.5C 458.167,315.5 457.5,314.833 457.5,313.5C 457.847,286.681 444.681,272.015 418,269.5C 392.346,272.985 379.846,287.652 380.5,313.5C 380.833,315.5 381.167,317.5 381.5,319.5C 381.158,320.338 380.492,320.672 379.5,320.5C 378.628,314.211 378.295,307.878 378.5,301.5C 378.523,299.073 379.023,296.74 380,294.5C 387.1,277.209 399.933,268.209 418.5,267.5C 441.057,268.722 454.724,280.389 459.5,302.5 Z"/></g>
<g><path style="opacity:1" fill="#f0f0f0" d="M 52.5,268.5 C 56.8461,268.334 61.1794,268.501 65.5,269C 68.3788,270.666 69.2121,273.166 68,276.5C 67.2496,277.126 66.4162,277.626 65.5,278C 61.1794,278.499 56.8461,278.666 52.5,278.5C 52.5,275.167 52.5,271.833 52.5,268.5 Z"/></g>
<g><path style="opacity:0.972" fill="#ffd800" d="M 349.5,264.5 C 352.544,269.662 354.211,275.328 354.5,281.5C 350.214,285.612 345.714,289.612 341,293.5C 340.51,292.207 340.343,290.873 340.5,289.5C 340.5,285.5 340.5,281.5 340.5,277.5C 344.662,273.999 347.662,269.665 349.5,264.5 Z"/></g>
<g><path style="opacity:1" fill="#4cad5a" d="M 457.5,313.5 C 456.596,314.209 456.263,315.209 456.5,316.5C 455.833,316.5 455.167,316.5 454.5,316.5C 456.874,294.406 447.541,279.906 426.5,273C 402.998,270.406 388.665,280.572 383.5,303.5C 382.676,307.312 382.176,311.312 382,315.5C 381.722,314.584 381.222,313.918 380.5,313.5C 379.846,287.652 392.346,272.985 418,269.5C 444.681,272.015 457.847,286.681 457.5,313.5 Z"/></g>
<g><path style="opacity:1" fill="#35afe8" d="M 218.5,304.5 C 217.046,307.353 216.046,310.353 215.5,313.5C 216.95,292.573 207.617,279.073 187.5,273C 173.309,270.514 161.475,274.681 152,285.5C 149.454,288.86 147.621,292.526 146.5,296.5C 144.74,301.553 144.073,306.886 144.5,312.5C 143.677,309.023 143.177,305.356 143,301.5C 142.768,302.737 142.268,303.737 141.5,304.5C 145.109,283.393 157.609,271.726 179,269.5C 201.47,270.809 214.637,282.476 218.5,304.5 Z"/></g>
<g><path style="opacity:1" fill="#f7f8f8" d="M 215.5,313.5 C 207.902,322.13 198.236,326.797 186.5,327.5C 186.5,312.5 186.5,297.5 186.5,282.5C 182.167,282.5 177.833,282.5 173.5,282.5C 173.5,294.5 173.5,306.5 173.5,318.5C 160.306,316.099 151.306,308.765 146.5,296.5C 147.621,292.526 149.454,288.86 152,285.5C 161.475,274.681 173.309,270.514 187.5,273C 207.617,279.073 216.95,292.573 215.5,313.5 Z"/></g>
<g><path style="opacity:1" fill="#f3f4f3" d="M 454.5,316.5 C 453.483,319.544 452.149,322.544 450.5,325.5C 446.751,326.872 443.085,328.539 439.5,330.5C 439.5,321.833 439.5,313.167 439.5,304.5C 431.981,304.175 424.648,304.508 417.5,305.5C 417.5,308.5 417.5,311.5 417.5,314.5C 421.226,314.177 424.893,314.511 428.5,315.5C 425.674,322.067 420.674,324.567 413.5,323C 405.229,315.675 403.395,306.842 408,296.5C 414.84,288.342 421.34,288.509 427.5,297C 431.152,297.499 434.818,297.665 438.5,297.5C 437.635,288.8 432.968,283.3 424.5,281C 410.186,277.905 400.352,283.072 395,296.5C 393.649,302.072 393.149,307.738 393.5,313.5C 393.483,315.028 392.816,315.528 391.5,315C 388.601,312.271 385.934,309.438 383.5,306.5C 383.5,305.5 383.5,304.5 383.5,303.5C 388.665,280.572 402.998,270.406 426.5,273C 447.541,279.906 456.874,294.406 454.5,316.5 Z"/></g>
<g><path style="opacity:0.979" fill="#ffd900" d="M 248.5,266.5 C 250.637,271.978 253.97,276.645 258.5,280.5C 258.5,283.5 258.5,286.5 258.5,289.5C 258.483,291.028 257.816,291.528 256.5,291C 252.269,286.938 248.269,282.771 244.5,278.5C 245.262,274.215 246.595,270.215 248.5,266.5 Z"/></g>
<g><path style="opacity:1" fill="#060606" d="M 417.5,305.5 C 424.5,305.5 431.5,305.5 438.5,305.5C 438.5,314.5 438.5,323.5 438.5,332.5C 436.167,332.5 433.833,332.5 431.5,332.5C 431.799,330.396 431.466,328.396 430.5,326.5C 420.714,336.657 410.548,336.99 400,327.5C 396.975,323.123 394.808,318.456 393.5,313.5C 393.149,307.738 393.649,302.072 395,296.5C 400.352,283.072 410.186,277.905 424.5,281C 432.968,283.3 437.635,288.8 438.5,297.5C 434.818,297.665 431.152,297.499 427.5,297C 421.34,288.509 414.84,288.342 408,296.5C 403.395,306.842 405.229,315.675 413.5,323C 420.674,324.567 425.674,322.067 428.5,315.5C 424.893,314.511 421.226,314.177 417.5,314.5C 417.5,311.5 417.5,308.5 417.5,305.5 Z"/></g>
<g><path style="opacity:1" fill="#393939" d="M 292.5,259.5 C 288.167,259.5 283.833,259.5 279.5,259.5C 279.5,276.167 279.5,292.833 279.5,309.5C 283.167,309.5 286.833,309.5 290.5,309.5C 286.702,310.483 282.702,310.817 278.5,310.5C 278.5,308.5 278.5,306.5 278.5,304.5C 278.5,289.167 278.5,273.833 278.5,258.5C 283.363,258.181 288.03,258.514 292.5,259.5 Z"/></g>
<g><path style="opacity:1" fill="#c7272c" d="M 113.5,271.5 C 114.933,275.986 115.933,280.653 116.5,285.5C 112.801,292.369 107.468,297.869 100.5,302C 99.5632,302.692 98.8966,302.525 98.5,301.5C 99.3443,297.789 100.344,294.123 101.5,290.5C 101.5,286.833 101.5,283.167 101.5,279.5C 102.302,280.952 102.802,282.618 103,284.5C 106.988,280.502 110.488,276.169 113.5,271.5 Z"/></g>
<g><path style="opacity:1" fill="#3a3a3a" d="M 308.5,259.5 C 312.298,258.517 316.298,258.183 320.5,258.5C 320.5,273.167 320.5,287.833 320.5,302.5C 320.5,305.167 320.5,307.833 320.5,310.5C 315.637,310.819 310.97,310.486 306.5,309.5C 310.833,309.5 315.167,309.5 319.5,309.5C 319.5,292.833 319.5,276.167 319.5,259.5C 315.833,259.5 312.167,259.5 308.5,259.5 Z"/></g>
<g><path style="opacity:0.987" fill="#0d9cdc" d="M 221.5,274.5 C 228.23,282.295 232.563,291.295 234.5,301.5C 229.861,306.474 225.195,311.474 220.5,316.5C 221.76,305.925 220.093,295.925 215.5,286.5C 218.06,282.713 220.06,278.713 221.5,274.5 Z"/></g>
<g><path style="opacity:1" fill="#f1f2f2" d="M 533.5,268.5 C 541.211,266.431 546.378,269.098 549,276.5C 549.667,281.5 549.667,286.5 549,291.5C 546.073,299.546 540.573,302.046 532.5,299C 527.168,292.841 525.335,285.675 527,277.5C 528.222,273.686 530.389,270.686 533.5,268.5 Z"/></g>
<g><path style="opacity:0.991" fill="#fec70f" d="M 354.5,281.5 C 354.5,284.167 354.5,286.833 354.5,289.5C 349.957,294.209 344.957,298.375 339.5,302C 338.184,302.528 337.517,302.028 337.5,300.5C 338.642,296.929 339.309,293.262 339.5,289.5C 339.833,289.5 340.167,289.5 340.5,289.5C 340.343,290.873 340.51,292.207 341,293.5C 345.714,289.612 350.214,285.612 354.5,281.5 Z"/></g>
<g><path style="opacity:0.994" fill="#fecb0e" d="M 244.5,278.5 C 248.269,282.771 252.269,286.938 256.5,291C 257.816,291.528 258.483,291.028 258.5,289.5C 259.69,294.567 261.357,299.567 263.5,304.5C 263.565,304.938 263.399,305.272 263,305.5C 256.677,301.336 250.51,297.003 244.5,292.5C 244.5,287.833 244.5,283.167 244.5,278.5 Z"/></g>
<g><path style="opacity:1" fill="#818282" d="M 64.5,288.5 C 60.8333,288.5 57.1667,288.5 53.5,288.5C 53.5,292.167 53.5,295.833 53.5,299.5C 52.5166,295.702 52.1832,291.702 52.5,287.5C 56.7016,287.183 60.7016,287.517 64.5,288.5 Z"/></g>
<g><path style="opacity:0.998" fill="#792c90" d="M 484.5,275.5 C 487.806,280.806 492.139,285.139 497.5,288.5C 497.5,288.833 497.5,289.167 497.5,289.5C 498.664,295.999 500.998,301.999 504.5,307.5C 496.669,304.084 489.669,299.417 483.5,293.5C 482.344,287.315 482.678,281.315 484.5,275.5 Z"/></g>
<g><path style="opacity:0.947" fill="#bf292e" d="M 6.5,278.5 C 9.56335,283.072 13.23,287.239 17.5,291C 19.0613,291.188 19.728,290.355 19.5,288.5C 20.4511,289.919 20.7845,291.585 20.5,293.5C 21.9704,297.912 23.6371,302.245 25.5,306.5C 25.44,307.043 25.1067,307.376 24.5,307.5C 17.9416,303.728 11.6082,299.728 5.5,295.5C 5.1778,289.642 5.51114,283.975 6.5,278.5 Z"/></g>
<g><path style="opacity:0.976" fill="#fbb219" d="M 354.5,289.5 C 354.495,293.534 354.162,297.534 353.5,301.5C 344.473,310.024 333.807,316.024 321.5,319.5C 328.307,314.363 333.641,308.03 337.5,300.5C 337.517,302.028 338.184,302.528 339.5,302C 344.957,298.375 349.957,294.209 354.5,289.5 Z"/></g>
<g><path style="opacity:0.993" fill="#ac2b30" d="M 5.5,295.5 C 11.6082,299.728 17.9416,303.728 24.5,307.5C 25.1067,307.376 25.44,307.043 25.5,306.5C 28.8062,310.473 32.4729,314.14 36.5,317.5C 36.44,318.043 36.1067,318.376 35.5,318.5C 26.7717,314.797 18.105,311.131 9.5,307.5C 7.58806,303.764 6.25473,299.764 5.5,295.5 Z"/></g>
<g><path style="opacity:0.991" fill="#028ece" d="M 129.5,289.5 C 132.087,293.267 134.92,296.933 138,300.5C 138.175,305.019 138.675,309.353 139.5,313.5C 139.517,315.565 139.85,317.565 140.5,319.5C 141.363,321.421 142.029,323.421 142.5,325.5C 135.934,321.606 129.934,316.939 124.5,311.5C 124.68,303.714 126.347,296.381 129.5,289.5 Z"/></g>
<g><path style="opacity:0.973" fill="#fbb318" d="M 244.5,292.5 C 250.51,297.003 256.677,301.336 263,305.5C 263.399,305.272 263.565,304.938 263.5,304.5C 266.762,309.102 270.428,313.435 274.5,317.5C 264.365,314.764 255.031,310.431 246.5,304.5C 245.448,300.574 244.782,296.574 244.5,292.5 Z"/></g>
<g><path style="opacity:0.969" fill="#6e2d90" d="M 593.5,279.5 C 593.666,285.176 593.499,290.843 593,296.5C 592.802,298.382 592.302,300.048 591.5,301.5C 583.439,307.199 574.772,311.865 565.5,315.5C 572.152,309.203 576.485,301.536 578.5,292.5C 578.232,290.901 578.566,289.568 579.5,288.5C 579.238,289.978 579.571,291.311 580.5,292.5C 585.215,288.452 589.548,284.119 593.5,279.5 Z"/></g>
<g><path style="opacity:1" fill="#e5e6e6" d="M 305.5,307.5 C 301.285,309.436 296.619,310.103 291.5,309.5C 291.802,306.941 291.468,304.607 290.5,302.5C 290.334,295.159 290.5,287.826 291,280.5C 295.846,289.527 300.679,298.527 305.5,307.5 Z"/></g>
<g><path style="opacity:0.982" fill="#2b9c4b" d="M 469.5,288.5 C 471.945,294.613 473.612,300.947 474.5,307.5C 473.883,307.389 473.383,307.056 473,306.5C 469.333,311.5 465,315.833 460,319.5C 459.517,318.552 459.351,317.552 459.5,316.5C 459.5,316.167 459.5,315.833 459.5,315.5C 459.5,311.167 459.5,306.833 459.5,302.5C 463.324,298.186 466.657,293.519 469.5,288.5 Z"/></g>
<g><path style="opacity:1" fill="#cececf" d="M 41.5,258.5 C 41.5,275.5 41.5,292.5 41.5,309.5C 52.2221,309.875 62.8888,309.375 73.5,308C 80.2894,304.159 82.956,298.325 81.5,290.5C 82.4731,292.948 82.8064,295.615 82.5,298.5C 84.3084,298.509 85.9751,298.009 87.5,297C 90.3925,294.265 93.3925,291.765 96.5,289.5C 89.4475,314.686 73.1141,324.186 47.5,318C 34.4015,312.261 26.7349,302.427 24.5,288.5C 24.1832,284.298 24.5166,280.298 25.5,276.5C 25.1326,280.967 25.6326,285.3 27,289.5C 29.1667,290.333 30.6667,291.833 31.5,294C 34.2767,296.055 37.2767,297.555 40.5,298.5C 40.1711,284.99 40.5044,271.656 41.5,258.5 Z"/></g>
<g><path style="opacity:1" fill="#d1d2d5" d="M 573.5,278.5 C 574.479,281.625 574.813,284.958 574.5,288.5C 570.231,308.59 557.731,319.257 537,320.5C 519.611,318.265 508.111,308.932 502.5,292.5C 502.5,291.5 502.5,290.5 502.5,289.5C 506.772,291.645 510.772,294.311 514.5,297.5C 515.298,297.043 515.631,296.376 515.5,295.5C 518.389,303.55 524.056,308.717 532.5,311C 549.58,312.736 559.58,305.236 562.5,288.5C 562.281,289.675 562.614,290.675 563.5,291.5C 569.17,288.845 572.504,284.512 573.5,278.5 Z"/></g>
<g><path style="opacity:1" fill="#9f3f42" d="M 98.5,278.5 C 99.4794,281.625 99.8128,284.958 99.5,288.5C 92.0624,316.728 74.0624,327.228 45.5,320C 33.5389,313.881 25.8723,304.381 22.5,291.5C 22.5,291.167 22.5,290.833 22.5,290.5C 23.8333,290.5 24.5,289.833 24.5,288.5C 26.7349,302.427 34.4015,312.261 47.5,318C 73.1141,324.186 89.4475,314.686 96.5,289.5C 96.5,286.167 96.5,282.833 96.5,279.5C 97.3138,281.631 97.8138,283.964 98,286.5C 98.4974,283.854 98.6641,281.187 98.5,278.5 Z"/></g>
<g><path style="opacity:1" fill="#e9eaea" d="M 64.5,288.5 C 70.214,289.383 71.714,292.383 69,297.5C 68.2496,298.126 67.4162,298.626 66.5,299C 62.1794,299.499 57.8461,299.666 53.5,299.5C 53.5,295.833 53.5,292.167 53.5,288.5C 57.1667,288.5 60.8333,288.5 64.5,288.5 Z"/></g>
<g><path style="opacity:1" fill="#ab2b30" d="M 116.5,285.5 C 116.22,291.754 115.22,297.754 113.5,303.5C 113.565,303.062 113.399,302.728 113,302.5C 106.694,307.461 99.8606,311.627 92.5,315C 90.9343,315.765 89.6009,315.598 88.5,314.5C 92.5599,310.708 95.8932,306.374 98.5,301.5C 98.8966,302.525 99.5632,302.692 100.5,302C 107.468,297.869 112.801,292.369 116.5,285.5 Z"/></g>
<g><path style="opacity:1" fill="#d8d2c9" d="M 258.5,280.5 C 260.098,282.857 261.098,285.523 261.5,288.5C 261.5,289.5 261.5,290.5 261.5,291.5C 270.005,317.755 287.671,327.255 314.5,320C 327.086,313.992 334.752,304.159 337.5,290.5C 338.167,290.167 338.833,289.833 339.5,289.5C 339.309,293.262 338.642,296.929 337.5,300.5C 333.641,308.03 328.307,314.363 321.5,319.5C 305.385,328.072 289.719,327.405 274.5,317.5C 270.428,313.435 266.762,309.102 263.5,304.5C 261.357,299.567 259.69,294.567 258.5,289.5C 258.5,286.5 258.5,283.5 258.5,280.5 Z"/></g>
<g><path style="opacity:1" fill="#464646" d="M 417.5,305.5 C 424.648,304.508 431.981,304.175 439.5,304.5C 439.5,313.167 439.5,321.833 439.5,330.5C 439.672,331.492 439.338,332.158 438.5,332.5C 438.5,323.5 438.5,314.5 438.5,305.5C 431.5,305.5 424.5,305.5 417.5,305.5 Z"/></g>
<g><path style="opacity:1" fill="#c8c4cf" d="M 499.5,288.5 C 500.167,290.167 500.833,291.833 501.5,293.5C 508.257,315.565 523.257,325.065 546.5,322C 562.292,318.041 572.292,308.208 576.5,292.5C 577.167,292.5 577.833,292.5 578.5,292.5C 576.485,301.536 572.152,309.203 565.5,315.5C 549.079,327.704 532.079,328.538 514.5,318C 510.288,315.289 506.954,311.789 504.5,307.5C 500.998,301.999 498.664,295.999 497.5,289.5C 498.492,289.672 499.158,289.338 499.5,288.5 Z"/></g>
<g><path style="opacity:1" fill="#633d97" d="M 574.5,288.5 C 574.285,290.179 574.952,291.179 576.5,291.5C 576.5,291.833 576.5,292.167 576.5,292.5C 572.292,308.208 562.292,318.041 546.5,322C 523.257,325.065 508.257,315.565 501.5,293.5C 502.167,293.5 502.5,293.167 502.5,292.5C 508.111,308.932 519.611,318.265 537,320.5C 557.731,319.257 570.231,308.59 574.5,288.5 Z"/></g>
<g><path style="opacity:1" fill="#cec3c4" d="M 99.5,288.5 C 99.1307,290.993 99.7973,291.66 101.5,290.5C 100.344,294.123 99.3443,297.789 98.5,301.5C 95.8932,306.374 92.5599,310.708 88.5,314.5C 71.8818,327.774 54.5484,328.774 36.5,317.5C 32.4729,314.14 28.8062,310.473 25.5,306.5C 23.6371,302.245 21.9704,297.912 20.5,293.5C 21.8333,293.5 22.5,292.833 22.5,291.5C 25.8723,304.381 33.5389,313.881 45.5,320C 74.0624,327.228 92.0624,316.728 99.5,288.5 Z"/></g>
<g><path style="opacity:1" fill="#e9eaeb" d="M 146.5,296.5 C 151.306,308.765 160.306,316.099 173.5,318.5C 173.5,322.5 173.5,326.5 173.5,330.5C 162.938,329.215 153.605,325.215 145.5,318.5C 144.85,316.565 144.517,314.565 144.5,312.5C 144.073,306.886 144.74,301.553 146.5,296.5 Z"/></g>
<g><path style="opacity:1" fill="#f5a232" d="M 337.5,277.5 C 337.5,281.833 337.5,286.167 337.5,290.5C 334.752,304.159 327.086,313.992 314.5,320C 287.671,327.255 270.005,317.755 261.5,291.5C 262.492,291.672 263.158,291.338 263.5,290.5C 264.488,293.081 265.488,295.748 266.5,298.5C 276.516,317.337 291.849,323.837 312.5,318C 322.385,313.615 329.385,306.448 333.5,296.5C 335.156,290.635 335.823,284.635 335.5,278.5C 336.167,278.167 336.833,277.833 337.5,277.5 Z"/></g>
<g><path style="opacity:1" fill="#d3d3d2" d="M 333.5,296.5 C 329.385,306.448 322.385,313.615 312.5,318C 291.849,323.837 276.516,317.337 266.5,298.5C 270.258,300.91 274.258,302.91 278.5,304.5C 278.5,306.5 278.5,308.5 278.5,310.5C 282.702,310.817 286.702,310.483 290.5,309.5C 290.5,307.167 290.5,304.833 290.5,302.5C 291.468,304.607 291.802,306.941 291.5,309.5C 296.619,310.103 301.285,309.436 305.5,307.5C 306.338,307.842 306.672,308.508 306.5,309.5C 310.97,310.486 315.637,310.819 320.5,310.5C 320.5,307.833 320.5,305.167 320.5,302.5C 324.845,300.49 329.178,298.49 333.5,296.5 Z"/></g>
<g><path style="opacity:0.964" fill="#942f33" d="M 113.5,303.5 C 107.352,322.48 94.6856,334.98 75.5,341C 50.7407,346.355 30.5741,339.188 15,319.5C 12.3441,315.856 10.5107,311.856 9.5,307.5C 18.105,311.131 26.7717,314.797 35.5,318.5C 36.1067,318.376 36.44,318.043 36.5,317.5C 54.5484,328.774 71.8818,327.774 88.5,314.5C 89.6009,315.598 90.9343,315.765 92.5,315C 99.8606,311.627 106.694,307.461 113,302.5C 113.399,302.728 113.565,303.062 113.5,303.5 Z"/></g>
<g><path style="opacity:0.97" fill="#f89a1d" d="M 353.5,301.5 C 340.763,335.039 316.763,347.872 281.5,340C 264.278,333.612 252.612,321.779 246.5,304.5C 255.031,310.431 264.365,314.764 274.5,317.5C 289.719,327.405 305.385,328.072 321.5,319.5C 333.807,316.024 344.473,310.024 353.5,301.5 Z"/></g>
<g><path style="opacity:0.971" fill="#582e91" d="M 483.5,293.5 C 489.669,299.417 496.669,304.084 504.5,307.5C 506.954,311.789 510.288,315.289 514.5,318C 532.079,328.538 549.079,327.704 565.5,315.5C 574.772,311.865 583.439,307.199 591.5,301.5C 586.083,322.084 573.083,335.251 552.5,341C 521.354,346.512 499.187,335.012 486,306.5C 484.369,302.312 483.536,297.979 483.5,293.5 Z"/></g>
<g><path style="opacity:1" fill="#545455" d="M 186.5,327.5 C 186.5,329.833 186.5,332.167 186.5,334.5C 182.167,334.5 177.833,334.5 173.5,334.5C 173.5,333.167 173.5,331.833 173.5,330.5C 173.5,326.5 173.5,322.5 173.5,318.5C 173.5,306.5 173.5,294.5 173.5,282.5C 177.833,282.5 182.167,282.5 186.5,282.5C 186.5,297.5 186.5,312.5 186.5,327.5 Z"/></g>
<g><path style="opacity:1" fill="#000000" d="M 174.5,283.5 C 178.167,283.5 181.833,283.5 185.5,283.5C 185.5,300.167 185.5,316.833 185.5,333.5C 181.833,333.5 178.167,333.5 174.5,333.5C 174.5,316.833 174.5,300.167 174.5,283.5 Z"/></g>
<g><path style="opacity:0.962" fill="#047bbb" d="M 234.5,301.5 C 235.392,306.438 235.726,311.438 235.5,316.5C 229.351,322.737 222.351,327.737 214.5,331.5C 217.286,326.808 219.286,321.808 220.5,316.5C 225.195,311.474 229.861,306.474 234.5,301.5 Z"/></g>
<g><path style="opacity:1" fill="#1f75b3" d="M 144.5,312.5 C 144.517,314.565 144.85,316.565 145.5,318.5C 145.557,319.609 145.89,320.609 146.5,321.5C 145.508,321.328 144.842,321.662 144.5,322.5C 143.833,321.167 143.167,319.833 142.5,318.5C 141.617,313.897 141.283,309.23 141.5,304.5C 142.268,303.737 142.768,302.737 143,301.5C 143.177,305.356 143.677,309.023 144.5,312.5 Z"/></g>
<g><path style="opacity:0.986" fill="#0a8849" d="M 474.5,307.5 C 474.687,314.708 473.687,321.708 471.5,328.5C 464.661,332.478 457.661,336.311 450.5,340C 449,340.5 447.5,341 446,341.5C 445.235,341.43 444.735,341.097 444.5,340.5C 452.059,334.038 457.059,326.038 459.5,316.5C 459.351,317.552 459.517,318.552 460,319.5C 465,315.833 469.333,311.5 473,306.5C 473.383,307.056 473.883,307.389 474.5,307.5 Z"/></g>
<g><path style="opacity:0.981" fill="#138d4a" d="M 378.5,301.5 C 378.295,307.878 378.628,314.211 379.5,320.5C 381.473,326.449 384.473,331.783 388.5,336.5C 388.44,337.043 388.107,337.376 387.5,337.5C 379.628,333.936 372.295,329.603 365.5,324.5C 364.046,320.426 363.379,316.093 363.5,311.5C 363.503,308.645 363.836,305.978 364.5,303.5C 368.127,308.294 372.293,312.628 377,316.5C 377.174,311.316 377.674,306.316 378.5,301.5 Z"/></g>
<g><path style="opacity:0.98" fill="#085da2" d="M 235.5,316.5 C 234.912,321.808 233.579,326.808 231.5,331.5C 231.44,330.957 231.107,330.624 230.5,330.5C 220.782,337.695 210.115,342.695 198.5,345.5C 204.747,341.922 210.08,337.256 214.5,331.5C 222.351,327.737 229.351,322.737 235.5,316.5 Z"/></g>
<g><path style="opacity:1" fill="#026fb0" d="M 124.5,311.5 C 129.934,316.939 135.934,321.606 142.5,325.5C 144.557,329.267 146.891,332.933 149.5,336.5C 140.624,333.12 132.624,328.453 125.5,322.5C 125.058,318.846 124.724,315.179 124.5,311.5 Z"/></g>
<g><path style="opacity:1" fill="#d0d3d3" d="M 383.5,306.5 C 385.934,309.438 388.601,312.271 391.5,315C 392.816,315.528 393.483,315.028 393.5,313.5C 394.808,318.456 396.975,323.123 400,327.5C 410.548,336.99 420.714,336.657 430.5,326.5C 431.466,328.396 431.799,330.396 431.5,332.5C 433.833,332.5 436.167,332.5 438.5,332.5C 439.338,332.158 439.672,331.492 439.5,330.5C 443.085,328.539 446.751,326.872 450.5,325.5C 441.726,340.166 428.726,346.332 411.5,344C 392.397,338.737 383.063,326.237 383.5,306.5 Z"/></g>
<g><path style="opacity:1" fill="#d0d2d5" d="M 215.5,313.5 C 212.659,329.512 203.326,339.679 187.5,344C 168.249,346.379 154.582,338.879 146.5,321.5C 145.89,320.609 145.557,319.609 145.5,318.5C 153.605,325.215 162.938,329.215 173.5,330.5C 173.5,331.833 173.5,333.167 173.5,334.5C 177.833,334.5 182.167,334.5 186.5,334.5C 186.5,332.167 186.5,329.833 186.5,327.5C 198.236,326.797 207.902,322.13 215.5,313.5 Z"/></g>
<g><path style="opacity:1" fill="#c0ccc8" d="M 457.5,313.5 C 457.5,314.833 458.167,315.5 459.5,315.5C 459.5,315.833 459.5,316.167 459.5,316.5C 457.059,326.038 452.059,334.038 444.5,340.5C 424.802,353.558 406.136,352.224 388.5,336.5C 384.473,331.783 381.473,326.449 379.5,320.5C 380.492,320.672 381.158,320.338 381.5,319.5C 390.749,341.96 407.416,350.46 431.5,345C 444.653,339.683 452.986,330.183 456.5,316.5C 456.263,315.209 456.596,314.209 457.5,313.5 Z"/></g>
<g><path style="opacity:1" fill="#218055" d="M 383.5,303.5 C 383.5,304.5 383.5,305.5 383.5,306.5C 383.063,326.237 392.397,338.737 411.5,344C 428.726,346.332 441.726,340.166 450.5,325.5C 452.149,322.544 453.483,319.544 454.5,316.5C 455.167,316.5 455.833,316.5 456.5,316.5C 452.986,330.183 444.653,339.683 431.5,345C 407.416,350.46 390.749,341.96 381.5,319.5C 381.167,317.5 380.833,315.5 380.5,313.5C 381.222,313.918 381.722,314.584 382,315.5C 382.176,311.312 382.676,307.312 383.5,303.5 Z"/></g>
<g><path style="opacity:0.967" fill="#017647" d="M 365.5,324.5 C 372.295,329.603 379.628,333.936 387.5,337.5C 388.107,337.376 388.44,337.043 388.5,336.5C 406.136,352.224 424.802,353.558 444.5,340.5C 444.735,341.097 445.235,341.43 446,341.5C 447.5,341 449,340.5 450.5,340C 457.661,336.311 464.661,332.478 471.5,328.5C 458.231,360.468 434.564,372.302 400.5,364C 381.556,357.225 369.889,344.059 365.5,324.5 Z"/></g>
<g><path style="opacity:1" fill="#c0c6cf" d="M 218.5,316.5 C 219.167,316.5 219.833,316.5 220.5,316.5C 219.286,321.808 217.286,326.808 214.5,331.5C 210.08,337.256 204.747,341.922 198.5,345.5C 187.727,349.885 176.727,350.552 165.5,347.5C 159.64,344.647 154.307,340.98 149.5,336.5C 146.891,332.933 144.557,329.267 142.5,325.5C 142.029,323.421 141.363,321.421 140.5,319.5C 141.492,319.672 142.158,319.338 142.5,318.5C 143.167,319.833 143.833,321.167 144.5,322.5C 155.842,345.122 173.509,351.955 197.5,343C 208.043,336.959 215.043,328.125 218.5,316.5 Z"/></g>
<g><path style="opacity:0.982" fill="#24408f" d="M 231.5,331.5 C 219.62,358.283 198.953,369.783 169.5,366C 150.245,361.57 136.579,350.404 128.5,332.5C 135.209,336.641 142.209,340.475 149.5,344C 154.782,345.489 160.116,346.656 165.5,347.5C 176.727,350.552 187.727,349.885 198.5,345.5C 210.115,342.695 220.782,337.695 230.5,330.5C 231.107,330.624 231.44,330.957 231.5,331.5 Z"/></g>
<g><path style="opacity:1" fill="#0c579d" d="M 125.5,322.5 C 132.624,328.453 140.624,333.12 149.5,336.5C 154.307,340.98 159.64,344.647 165.5,347.5C 160.116,346.656 154.782,345.489 149.5,344C 142.209,340.475 135.209,336.641 128.5,332.5C 127.497,329.15 126.497,325.817 125.5,322.5 Z"/></g>
<g><path style="opacity:1" fill="#314c95" d="M 218.5,304.5 C 218.5,308.5 218.5,312.5 218.5,316.5C 215.043,328.125 208.043,336.959 197.5,343C 173.509,351.955 155.842,345.122 144.5,322.5C 144.842,321.662 145.508,321.328 146.5,321.5C 154.582,338.879 168.249,346.379 187.5,344C 203.326,339.679 212.659,329.512 215.5,313.5C 216.046,310.353 217.046,307.353 218.5,304.5 Z"/></g>
</svg>
